# xmcd CD database file generated by Grip 3.2.0
#
# Track frame offsets:
#       150
#       19525
#       36400
#       52900
#       69187
#       85812
#       102312
#       116125
#       141725
#       154150
#
# Disc length: 2244 seconds
#
# Revision: 0
# Processed by: cddbd v1.5.1PL2 Copyright (c) Steve Scherf et al.
# Submitted via: Grip 3.2.0  GR/19.08.2006
#
DISCID=8408c20a
DTITLE=Big i'Naf - Big i'Naf
DYEAR=1994
DGENRE=misc
TTITLE0=Buckskin Man
TTITLE1=Boogie
TTITLE2=Let Time Go By
TTITLE3=Little Lady
TTITLE4=She's A Rebel
TTITLE5=You
TTITLE6=Hurry
TTITLE7=Private Dancer
TTITLE8=2 Letters
TTITLE9=It's Over
EXTD=
EXTT0=
EXTT1=
EXTT2=
EXTT3=
EXTT4=
EXTT5=
EXTT6=
EXTT7=
EXTT8=
EXTT9=
PLAYORDER=
